<svg xmlns="http://www.w3.org/2000/svg" width="40" height="40" viewBox="0 0 40 40">
  <g id="_x34_4-18Plus_movie" transform="translate(-0.001)">
    <g id="Group_8165" data-name="Group 8165" transform="translate(10.144 13.169)">
      <path id="Path_21099" data-name="Path 21099" d="M85.9,121.913v-10.86h-2.51V108.27h5.975v13.643Z" transform="translate(-83.392 -108.27)" fill="rgba(75,68,83,0.5)"/>
    </g>
    <g id="Group_8166" data-name="Group 8166" transform="translate(18.687 13.033)">
      <path id="Path_21100" data-name="Path 21100" d="M164.081,110.809a3.188,3.188,0,0,1-1.713,2.822,3.731,3.731,0,0,1,2.433,3.445c0,2.452-2.18,4.009-5.585,4.009s-5.585-1.538-5.585-3.951a3.808,3.808,0,0,1,2.588-3.5,3.43,3.43,0,0,1-1.888-2.919c0-2.18,1.907-3.561,4.865-3.561C162.193,107.15,164.081,108.571,164.081,110.809Zm-7.181,5.975c0,1.148.817,1.791,2.316,1.791s2.335-.623,2.335-1.791c0-1.129-.837-1.771-2.335-1.771S156.9,115.655,156.9,116.783Zm.35-5.78c0,.973.7,1.518,1.966,1.518s1.966-.545,1.966-1.518c0-1.012-.7-1.576-1.966-1.576S157.25,109.992,157.25,111Z" transform="translate(-153.63 -107.15)" fill="rgba(75,68,83,0.5)"/>
    </g>
    <g id="Group_8167" data-name="Group 8167" transform="translate(0.001)">
      <path id="Path_21101" data-name="Path 21101" d="M35.622,14.709a16.476,16.476,0,1,1-10.33-10.33V.709a19.986,19.986,0,1,0,14,14H35.622Z" transform="translate(-0.001)" fill="rgba(75,68,83,0.5)"/>
    </g>
    <g id="Group_8168" data-name="Group 8168" transform="translate(28.055 1.53)">
      <path id="Path_21102" data-name="Path 21102" d="M237.217,16.417V12.582h-2.758v3.835h-3.812v2.757h3.812v3.835h2.758V19.174h3.835V16.417Z" transform="translate(-230.647 -12.582)" fill="rgba(75,68,83,0.5)"/>
    </g>
  </g>
</svg>
