<svg xmlns="http://www.w3.org/2000/svg" width="313" height="40" viewBox="0 0 313 40">
  <g id="gambleaware-helpline-logo-vector_2_copy" data-name="gambleaware-helpline-logo-vector_2 copy" transform="translate(-128.13 -226.85)">
    <path id="Path_21080" data-name="Path 21080" d="M128.189,250.88h8.754c3.907,0,5.371.128,6.478.621a5.99,5.99,0,0,1,3.517,5.538c0,2.312-.748,3.452-2.961,4.661a5.474,5.474,0,0,1,3.811,5.736c0,3.848-2.961,6.421-7.386,6.421H128.13v-3.746h1.79V254.631h-1.726V250.88Zm6.413,3.746V260.2h4.521a2.979,2.979,0,0,0,3.287-2.932c0-1.53-1.5-2.638-3.613-2.638Zm0,9.188V270.1h4.815c2.052,0,3.645-1.338,3.645-3.1,0-1.921-1.63-3.195-4.1-3.195H134.6Z" transform="translate(0 -11.171)" fill="rgba(75,68,83,0.5)"/>
    <path id="Path_21081" data-name="Path 21081" d="M186.362,272.477c-.78,3.778-3.939,6.127-8.172,6.127-4.88,0-8.46-3.81-8.46-9.156,0-5.276,3.613-9.188,8.5-9.188a7.914,7.914,0,0,1,6.7,3.553,11.773,11.773,0,0,1,1.726,6.518H174.091c.422,4.527,3.383,4.757,4.2,4.757a3.517,3.517,0,0,0,3.549-2.606h4.527Zm-4.457-5.148a3.507,3.507,0,0,0-3.677-3.419c-1.887,0-3.351,1.274-3.907,3.419Z" transform="translate(-19.367 -15.532)" fill="rgba(75,68,83,0.5)"/>
    <path id="Path_21082" data-name="Path 21082" d="M218.077,262.082h7.942v11.409h-2.6v-3.553a7.474,7.474,0,0,1-1.694,2.151,7.907,7.907,0,0,1-5.27,1.985c-5.339,0-9.5-5.212-9.5-11.928,0-6.78,4.131-12.056,9.438-12.056a7.483,7.483,0,0,1,6.836,3.976v-3.553h2.41v7.3h-2.507a6.813,6.813,0,0,0-1.3-2.8,6.366,6.366,0,0,0-4.88-2.51c-2.833,0-6.9,2.413-6.9,9.514,0,5.506,2.961,9.616,6.932,9.616a6.785,6.785,0,0,0,6.28-5.442,10.911,10.911,0,0,0,.166-1.857h-5.339v-2.247Z" transform="translate(-36.695 -10.804)" fill="rgba(75,68,83,0.5)"/>
    <path id="Path_21083" data-name="Path 21083" d="M264.91,278.381h-4.949v-3.1a6.663,6.663,0,0,1-5.858,3.425,5.307,5.307,0,0,1-5.633-5.282c0-3.323,2.929-4.987,9.829-5.64.23-.032.946-.1,1.63-.161v-1.793c0-1.985-1.529-3.227-3.939-3.227-2.539,0-3.677.845-4.2,3.1h-2.635a5.835,5.835,0,0,1,1.951-3.585,7.207,7.207,0,0,1,4.687-1.5c3.581,0,6.643,1.664,6.643,6.063v9.648h2.475v2.049Zm-4.981-8.963-1.593.2c-5.339.653-7.13,1.632-7.13,3.848a3.468,3.468,0,0,0,3.613,3.323,5.324,5.324,0,0,0,5.109-4.527v-2.841Z" transform="translate(-56.024 -15.699)" fill="rgba(75,68,83,0.5)"/>
    <path id="Path_21084" data-name="Path 21084" d="M288.353,264.057c.78-1.2,2.341-3.617,5.532-3.617,2.309,0,3.645,1.209,4.067,3.65a6.951,6.951,0,0,1,1.662-2.151,5.482,5.482,0,0,1,3.741-1.5c2.667,0,4.233,1.728,4.233,4.757v11.05H310V278.3h-4.917v-12.19c0-2.445-.812-3.553-2.507-3.553-3.025,0-4.623,3.65-4.623,4.821v8.867h2.507V278.3h-5.013V265.716c0-2.183-.812-3.163-2.507-3.163-2.7,0-4.623,3.355-4.623,4.955v8.733h2.474V278.3h-7.52v-2.055h2.539V262.816H283.27v-2.087h5.077v3.328Z" transform="translate(-72.226 -15.615)" fill="rgba(75,68,83,0.5)"/>
    <path id="Path_21085" data-name="Path 21085" d="M338.066,248.99h4.885v10.135c.652-1.236,2.667-3.88,5.729-3.88,3.939,0,6.932,4.008,6.932,9.156,0,4.789-3.191,8.8-7,8.8-3.094,0-4.591-2.055-5.665-3.521v3.291H337.97v-2.055h2.474v-19.88h-2.378V248.99Zm4.88,16.589c0,2.9,2.346,5.474,5.013,5.474,2.993,0,4.917-2.708,4.917-6.908,0-4.04-1.919-6.812-4.815-6.812-2.539,0-5.109,2.836-5.109,5.314v2.932Z" transform="translate(-97.691 -10.293)" fill="rgba(75,68,83,0.5)"/>
    <path id="Path_21086" data-name="Path 21086" d="M374.652,248.99h4.981v21.934h2.346v2.049H374.62v-2.049h2.507v-19.88h-2.474Z" transform="translate(-114.754 -10.293)" fill="rgba(75,68,83,0.5)"/>
    <path id="Path_21087" data-name="Path 21087" d="M407,273.531a6.487,6.487,0,0,1-1.4,2.67,7.074,7.074,0,0,1-5.5,2.51c-4.751,0-8.07-3.714-8.07-9.06,0-5.148,3.319-9.092,7.648-9.092,4.361,0,7.712,3.387,7.712,9.514H394.729c.23,2.574.812,4.008,2.02,5.18a4.516,4.516,0,0,0,3.287,1.306c2.02,0,3.255-.915,4.131-3.029Zm-2.507-5.378c-.2-2.183-.684-3.387-1.694-4.367a4.142,4.142,0,0,0-2.9-1.076,5,5,0,0,0-4.655,3.746,9.632,9.632,0,0,0-.358,1.7Z" transform="translate(-122.859 -15.671)" fill="rgba(75,68,83,0.5)"/>
    <path id="Path_21088" data-name="Path 21088" d="M433.6,250.88h5.5l6.312,19.227h1.726v3.746h-5.275l-1.5-4.987H432.3l-1.5,4.987H425.46v-3.746h1.758L433.6,250.88Zm2.763,4.3-3.057,10.167h6.055l-3-10.167Z" transform="translate(-138.422 -11.171)" fill="rgba(75,68,83,0.5)"/>
    <path id="Path_21089" data-name="Path 21089" d="M465.78,261.23h6.964v3.387h-1.758l2.41,10.269,2.865-13.656h4.489l2.9,13.49,2.314-10.1h-1.694V261.23h7v3.387h-1.5l-3.741,14.047H481.4l-2.9-12.12-2.736,12.12h-4.687l-3.837-14.047H465.78Z" transform="translate(-157.193 -15.983)" fill="rgba(75,68,83,0.5)"/>
    <path id="Path_21090" data-name="Path 21090" d="M530.928,274.91h1.5V278.3h-5.4v-2.055c-1.79,1.793-3.126,2.413-5.27,2.413-3.485,0-6.151-2.349-6.151-5.442,0-5.116,5.761-5.672,11.325-6.191-.032-2.67-.684-3.355-3.223-3.355a2.826,2.826,0,0,0-3.127,2.638l-4.233-.128c.23-3.489,3.025-5.736,7.162-5.736,4.815,0,7.418,2.183,7.418,6.159v8.31Zm-4.073-4.859c-4.1.391-6.771.749-6.771,3.163,0,1.434,1.138,2.376,2.865,2.376a3.806,3.806,0,0,0,3.907-3.842v-1.7Z" transform="translate(-180.387 -15.615)" fill="rgba(75,68,83,0.5)"/>
    <path id="Path_21091" data-name="Path 21091" d="M558.7,263.57c1.138-2.215,2.41-3.13,4.361-3.13a9.555,9.555,0,0,1,1.956.23v4.072a9.915,9.915,0,0,0-2.116-.23c-2.277,0-4.2,1.627-4.2,3.617v6.78h2.084V278.3H552.75V274.91h1.694V264.255h-1.662v-3.387H558.7v2.7Z" transform="translate(-197.682 -15.615)" fill="rgba(75,68,83,0.5)"/>
    <path id="Path_21092" data-name="Path 21092" d="M593.982,272.477c-.78,3.778-3.939,6.127-8.172,6.127-4.88,0-8.46-3.81-8.46-9.156,0-5.276,3.613-9.188,8.5-9.188a7.93,7.93,0,0,1,6.707,3.553,11.728,11.728,0,0,1,1.726,6.518H581.716c.422,4.527,3.383,4.757,4.2,4.757a3.517,3.517,0,0,0,3.549-2.606h4.516Zm-4.463-5.148a3.507,3.507,0,0,0-3.677-3.419c-1.887,0-3.351,1.274-3.907,3.419Z" transform="translate(-209.135 -15.532)" fill="rgba(75,68,83,0.5)"/>
    <path id="Path_21093" data-name="Path 21093" d="M612.94,289.67h2.266v2.215H612.94Z" transform="translate(-225.704 -29.204)" fill="rgba(75,68,83,0.5)"/>
    <path id="Path_21094" data-name="Path 21094" d="M622.16,275.643c0-4,2.458-6.753,6.013-6.753,3.479,0,6.013,2.852,6.013,6.753,0,4.072-2.485,6.876-6.061,6.876-3.554,0-5.964-2.777-5.964-6.876Zm5.943,5.244c2.485,0,3.971-2,3.971-5.287,0-3.1-1.561-5.073-3.971-5.073-2.362,0-3.821,1.975-3.821,5.169-.005,3.264,1.432,5.191,3.821,5.191Z" transform="translate(-229.996 -19.544)" fill="rgba(75,68,83,0.5)"/>
    <path id="Path_21095" data-name="Path 21095" d="M651.491,272.093a6.243,6.243,0,0,1,1.561-2.338,3.688,3.688,0,0,1,2.384-.9,10.635,10.635,0,0,1,1.411.144v1.926a7.593,7.593,0,0,0-1.39-.171c-3.554,0-3.971,3.682-3.971,3.874v6.047h2.239v1.536H647.74v-1.536h1.876V270.627H647.67v-1.563h3.821v3.029Z" transform="translate(-241.872 -19.525)" fill="rgba(75,68,83,0.5)"/>
    <path id="Path_21096" data-name="Path 21096" d="M676.981,279.009a4.594,4.594,0,0,1-3.944,2.242c-3.143,0-5.307-2.585-5.307-6.314,0-3.537,2.116-6.047,5.088-6.047a4.765,4.765,0,0,1,4.163,2.536v-2.338h3.7v1.563h-1.828v10.772c0,3.168-2.02,4.971-5.574,4.971a5.505,5.505,0,0,1-4.9-2.483,7.374,7.374,0,0,1-.534-1.3h2.116a3.335,3.335,0,0,0,3.458,2.167c2.218,0,3.554-1.145,3.554-3.045v-2.729Zm0-5.068a4.057,4.057,0,0,0-3.752-3.484c-2.143,0-3.458,1.755-3.458,4.607,0,2.9,1.341,4.656,3.581,4.656a3.845,3.845,0,0,0,3.629-3.414v-2.365Z" transform="translate(-251.211 -19.544)" fill="rgba(75,68,83,0.5)"/>
    <path id="Path_21097" data-name="Path 21097" d="M698.705,231.62h2.8a2.182,2.182,0,0,1,1.454.417,1.468,1.468,0,0,1,.486,1.167,1.744,1.744,0,0,1-.123.7,1.45,1.45,0,0,1-.289.444,1.065,1.065,0,0,1-.326.241,2.205,2.205,0,0,1-.235.1v.016a.938.938,0,0,1,.283.086.793.793,0,0,1,.283.209,1.2,1.2,0,0,1,.219.375,1.648,1.648,0,0,1,.086.578,5.118,5.118,0,0,0,.08.942,1.288,1.288,0,0,0,.241.6h-1.1a.96.96,0,0,1-.134-.417,4.247,4.247,0,0,1-.021-.444,4.393,4.393,0,0,0-.048-.7,1.171,1.171,0,0,0-.182-.487.754.754,0,0,0-.358-.284,1.591,1.591,0,0,0-.577-.091h-1.513v2.413H698.7V231.62Zm1.026,2.67h1.684a1.082,1.082,0,0,0,.748-.235.9.9,0,0,0,.256-.7,1.1,1.1,0,0,0-.08-.455.682.682,0,0,0-.224-.278.932.932,0,0,0-.326-.134,2.224,2.224,0,0,0-.379-.032h-1.667v1.835Z" transform="translate(-265.629 -2.217)" fill="rgba(75,68,83,0.5)"/>
    <path id="Path_21098" data-name="Path 21098" d="M698.2,238.227a5.688,5.688,0,1,1,5.681-5.688,5.692,5.692,0,0,1-5.681,5.688Zm0-10.44a4.757,4.757,0,1,0,4.751,4.757,4.761,4.761,0,0,0-4.751-4.757Z" transform="translate(-262.752)" fill="rgba(75,68,83,0.5)"/>
  </g>
</svg>
