<svg xmlns="http://www.w3.org/2000/svg" width="153" height="36" viewBox="0 0 153 36">
  <g id="Group_1177" data-name="Group 1177" transform="translate(-295.2 -101.5)">
    <path id="Path_681" data-name="Path 681" d="M796.724,137.5H754.7V116.423A14.909,14.909,0,0,1,769.607,101.5h42.024v21.056A14.927,14.927,0,0,1,796.724,137.5" transform="translate(-363.431)" fill="#7f3ffc"/>
    <path id="Path_682" data-name="Path 682" d="M308.6,145.014a7.674,7.674,0,0,1,2.153,5.672v3.223a7.784,7.784,0,1,1-15.555,0v-3.244a7.657,7.657,0,0,1,2.153-5.672,7.568,7.568,0,0,1,5.624-2.093,7.663,7.663,0,0,1,5.624,2.114m-5.624.544a4.682,4.682,0,0,0-5.122,5.107v3.223a5.2,5.2,0,0,0,1.359,3.809,5.089,5.089,0,0,0,3.763,1.319,5.005,5.005,0,0,0,3.742-1.319,5.17,5.17,0,0,0,1.359-3.809v-3.223a5.119,5.119,0,0,0-1.359-3.788,5.005,5.005,0,0,0-3.742-1.319" transform="translate(0 -32.735)" fill="#4b4453"/>
    <path id="Path_683" data-name="Path 683" d="M384.455,161.516H381.8V146.2a3.353,3.353,0,0,1,1.024-2.47,3.428,3.428,0,0,1,2.467-1.026h4.474a5.6,5.6,0,0,1,4.14,1.486c.983.984,1.484,2.574,1.484,4.772,0,2.219-.5,3.809-1.484,4.793a5.631,5.631,0,0,1-4.14,1.486h-4.035V152.7h4.035a3.1,3.1,0,0,0,2.279-.712,4.621,4.621,0,0,0,.711-3.056,4.221,4.221,0,0,0-.711-2.909,3.194,3.194,0,0,0-2.279-.712h-4.474a.858.858,0,0,0-.836.837Z" transform="translate(-68.494 -32.577)" fill="#4b4453"/>
    <path id="Path_684" data-name="Path 684" d="M464.454,143v2.637H458.7v16.116h-2.655V145.637H450.3V143Z" transform="translate(-122.673 -32.814)" fill="#4b4453"/>
    <rect id="Rectangle_577" data-name="Rectangle 577" width="2.634" height="18.753" transform="translate(343.58 110.186)" fill="#4b4453"/>
    <path id="Path_685" data-name="Path 685" d="M568.215,161.358l-.774-15.656c-.021-.335-.125-.523-.314-.523-.23,0-.376.167-.439.523l-2.3,11.763a2.3,2.3,0,0,1-1.108,1.57,3.264,3.264,0,0,1-1.735.46,3.213,3.213,0,0,1-1.735-.46,2.3,2.3,0,0,1-1.108-1.57L556.444,145.7c-.063-.335-.209-.523-.439-.523-.209,0-.334.188-.355.565l-.774,15.593H552.2l.815-15.97a2.974,2.974,0,0,1,.92-2.051,3.01,3.01,0,0,1,4.077-.042,3.427,3.427,0,0,1,1.045,1.9l2.216,11.491c.042.188.125.293.272.293s.23-.084.293-.272l2.216-11.512a3.312,3.312,0,0,1,1.087-1.9,2.944,2.944,0,0,1,2.049-.774,2.726,2.726,0,0,1,2.049.837,3.062,3.062,0,0,1,.857,2.051l.815,15.97Z" transform="translate(-203.268 -32.419)" fill="#4b4453"/>
    <path id="Path_686" data-name="Path 686" d="M666.6,145.014a7.674,7.674,0,0,1,2.154,5.672v3.223a7.784,7.784,0,1,1-15.555,0v-3.244a7.657,7.657,0,0,1,2.154-5.672,7.568,7.568,0,0,1,5.624-2.093,7.663,7.663,0,0,1,5.624,2.114m-5.624.544a4.682,4.682,0,0,0-5.122,5.107v3.223a5.2,5.2,0,0,0,1.359,3.809,5.089,5.089,0,0,0,3.763,1.319,5.005,5.005,0,0,0,3.742-1.319,5.17,5.17,0,0,0,1.359-3.809v-3.223a5.119,5.119,0,0,0-1.359-3.788,5.005,5.005,0,0,0-3.742-1.319" transform="translate(-283.152 -32.735)" fill="#4b4453"/>
    <path id="Path_687" data-name="Path 687" d="M807.143,150.2a4.467,4.467,0,0,1,2.969,4.437,5.417,5.417,0,0,1-1.652,4.04,6.014,6.014,0,0,1-4.453,1.633h-3.471V156.1h3.471a1.832,1.832,0,0,0,1.484-.649,2.077,2.077,0,0,0,.5-1.423,2.114,2.114,0,0,0-.5-1.423,1.867,1.867,0,0,0-1.484-.649h-3.471v-3.412h2.655a1.294,1.294,0,0,0,1.066-.481,1.844,1.844,0,0,0,0-2.177,1.238,1.238,0,0,0-1.066-.481H799.3V160.33h-4.2V145.3a3.936,3.936,0,0,1,1.192-2.888,4.819,4.819,0,0,1,3.533-1.214h2.718a7.2,7.2,0,0,1,4.14,1,4.876,4.876,0,0,1,1.819,2.449,5.25,5.25,0,0,1,.146,2.951,4.748,4.748,0,0,1-1.505,2.6" transform="translate(-395.384 -31.391)" fill="#f2f2f2"/>
    <path id="Path_688" data-name="Path 688" d="M881.717,168.74a2.685,2.685,0,0,0-1.819-1.088,3.337,3.337,0,0,0-2.007.377,2.821,2.821,0,0,0-1.213,1.256,3.516,3.516,0,0,0-.439,1.737,3.281,3.281,0,0,0,.732,2.156,2.924,2.924,0,0,0,2.342.963h5.31v4.06h-5.31a6.787,6.787,0,0,1-5.729-2.6A7.319,7.319,0,0,1,872.1,171a7.617,7.617,0,0,1,1.066-4.04,6.3,6.3,0,0,1,3.2-2.637,8.269,8.269,0,0,1,2.927-.523,7.108,7.108,0,0,1,4.035,1.3,6.843,6.843,0,0,1,2.467,2.8,3.288,3.288,0,0,1,.355,2.177,1.852,1.852,0,0,1-1.443,1.36l-4.892,1.4a1.442,1.442,0,0,1-.523.084,1.679,1.679,0,0,1-1.693-1.716,1.664,1.664,0,0,1,.376-1.067,1.634,1.634,0,0,1,.92-.607Z" transform="translate(-456.286 -49.26)" fill="#f2f2f2"/>
    <path id="Path_689" data-name="Path 689" d="M955.367,160.33a6.867,6.867,0,0,1-5.081-1.947,7.075,7.075,0,0,1-1.986-5.149V142.477l4.2-1.277v4.981h3.826v3.809H952.5V153.3a2.537,2.537,0,0,0,2.864,2.826h.941v4.207Z" transform="translate(-516.554 -31.391)" fill="#f2f2f2"/>
  </g>
</svg>
