<?xml version="1.0" encoding="utf-8"?>
<!-- Generator: Adobe Illustrator 22.0.0, SVG Export Plug-In . SVG Version: 6.00 Build 0)  -->
<svg version="1.1" id="Layer_1" xmlns="http://www.w3.org/2000/svg" xmlns:xlink="http://www.w3.org/1999/xlink" x="0px" y="0px"
	 viewBox="0 0 828.5 183.9" style="enable-background:new 0 0 828.5 183.9;" xml:space="preserve">
<style type="text/css">
	.st0{fill:#7F3FFC;}
	.st1{fill:#FFFFFF;}
</style>
<path class="st0" d="M752.3,177.8h-288V77.2c0-39.4,31.9-71.3,71.3-71.3h288v100.6C823.6,145.9,791.6,177.8,752.3,177.8z"/>
<g>
	<path class="st1" d="M68.8,57.3c6.8,6.8,10.3,15.8,10.3,27.1v15.4c0,11.3-3.4,20.3-10.3,27.1c-6.7,6.7-15.6,10-26.9,10
		c-11.3,0-20.3-3.3-27-10c-6.8-6.8-10.2-15.8-10.2-27.1V84.4c0-11.2,3.4-20.2,10.3-27.1c6.7-6.7,15.6-10,26.9-10
		C53.2,47.3,62.2,50.7,68.8,57.3z M41.9,60c-7.7,0-13.7,2.1-17.9,6.3c-4.4,4.4-6.6,10.4-6.6,18.1v15.4c0,7.8,2.2,13.8,6.5,18.2
		c4.2,4.2,10.2,6.3,18,6.3s13.8-2.1,17.9-6.3c4.3-4.3,6.5-10.4,6.5-18.2V84.4c0-7.8-2.2-13.8-6.5-18.1C55.7,62.1,49.7,60,41.9,60z"
		/>
	<path class="st1" d="M104.1,137H91.3V63.7c0-4.6,1.6-8.5,4.8-11.8c3.3-3.2,7.2-4.8,11.8-4.8h21.4c8.5,0,15.1,2.4,19.8,7.1
		c4.8,4.7,7.1,12.3,7.1,22.8c0,10.6-2.4,18.2-7.1,22.9c-4.8,4.8-11.4,7.1-19.8,7.1h-19.3V95h19.3c4.9,0,8.6-1.1,10.9-3.4
		c2.3-2.3,3.4-7.1,3.4-14.6c0-7-1.1-11.6-3.4-13.9c-2.3-2.3-5.9-3.4-10.9-3.4H108c-1.1,0-2,0.4-2.8,1.2c-0.8,0.8-1.2,1.7-1.2,2.8
		V137z"/>
	<path class="st1" d="M227.5,47.3V60H200v77h-12.7V60h-27.5V47.3H227.5z"/>
	<path class="st1" d="M248.8,137h-12.6V47.3h12.6V137z"/>
	<path class="st1" d="M338.3,137l-3.8-74.8c-0.1-1.6-0.6-2.5-1.5-2.5c-1.1,0-1.8,0.8-2.1,2.5L320,118.4c-0.6,3.2-2.4,5.7-5.3,7.5
		c-2.5,1.5-5.2,2.2-8.4,2.2c-3.1,0-5.9-0.7-8.3-2.2c-3-1.8-4.7-4.3-5.3-7.5l-10.8-56.2c-0.3-1.6-1-2.5-2.1-2.5c-1,0-1.6,0.9-1.7,2.7
		l-3.8,74.5h-12.8l3.9-76.3c0.2-3.9,1.7-7.2,4.4-9.8c2.7-2.6,6-3.9,10-3.9c3.7,0,6.9,1.3,9.6,3.8c2.6,2.3,4.2,5.4,5,9.1l10.6,55
		c0.2,0.9,0.6,1.3,1.3,1.3c0.6,0,1.1-0.4,1.4-1.3l10.6-55c0.7-3.7,2.5-6.7,5.2-9.1c2.8-2.5,6-3.7,9.8-3.7c3.9,0,7.2,1.3,9.8,4
		c2.5,2.6,3.9,5.8,4.1,9.8l3.9,76.3L338.3,137L338.3,137z"/>
	<path class="st1" d="M426.8,57.3c6.8,6.8,10.3,15.8,10.3,27.1v15.4c0,11.3-3.4,20.3-10.3,27.1c-6.7,6.7-15.6,10-26.9,10
		c-11.3,0-20.3-3.3-27-10c-6.8-6.8-10.2-15.8-10.2-27.1V84.4c0-11.2,3.4-20.2,10.3-27.1c6.7-6.7,15.6-10,26.9-10
		C411.2,47.3,420.1,50.7,426.8,57.3z M399.9,60c-7.7,0-13.7,2.1-17.9,6.3c-4.4,4.4-6.6,10.4-6.6,18.1v15.4c0,7.8,2.2,13.8,6.5,18.2
		c4.2,4.2,10.2,6.3,18,6.3s13.8-2.1,17.9-6.3c4.3-4.3,6.5-10.4,6.5-18.2V84.4c0-7.8-2.2-13.8-6.5-18.1C413.7,62.1,407.7,60,399.9,60
		z"/>
</g>
<g>
	<path class="st1" d="M562.3,74.6v10.2c0,5.5-0.5,9.9-1.5,13.3c-1.3,4.3-3.6,8.2-7,11.6c-5.6,5.6-12.5,8.4-20.6,8.4
		c-8.1,0-15-2.8-20.6-8.4c-5.6-5.6-8.5-13-8.5-22.2V76.2c0-9.2,2.8-16.6,8.5-22.2c5.6-5.6,12.9-8.4,22.1-8.4h19.3v16h-19.3
		c-4.7,0-8.3,1.2-10.8,3.7c-2.5,2.5-3.8,6.2-3.8,10.9v11.3c0,4.8,1.3,8.4,3.8,10.9c2.5,2.5,5.6,3.7,9.4,3.7c3.7,0,6.8-1.3,9.3-3.8
		c2.5-2.5,3.9-5.5,4.3-9.2h-13.4V74.6H562.3z"/>
	<path class="st1" d="M604,64.5v15.9h-4.2c-5.9,0-9.8,1-11.8,3.1c-1.4,1.5-2.1,4.1-2.1,7.8v26.8h-16V91.3c0-7.9,2.2-14.2,6.6-18.8
		c5.1-5.3,12.8-8,23.2-8H604z"/>
	<path class="st1" d="M634.5,63.6c8,0,14.4,2.5,19.3,7.4c5,5,7.5,11.8,7.5,20.4s-2.5,15.4-7.5,20.4c-4.9,4.9-11.3,7.3-19.3,7.3
		s-14.4-2.4-19.3-7.3c-5-5-7.5-11.8-7.5-20.4s2.5-15.4,7.5-20.4C620.1,66,626.5,63.6,634.5,63.6z M625.7,81.4c-2,2.1-3,5.4-3,9.9
		c0,4.6,1,7.9,3,9.9c2,1.9,5,2.9,8.8,2.9s6.8-1,8.8-2.9c2-2,3-5.3,3-9.9c0-4.5-1-7.8-3-9.9c-2-1.9-5-2.9-8.8-2.9
		S627.7,79.5,625.7,81.4z"/>
	<path class="st1" d="M705.7,64.5h16v27.8c0,8-2.5,14.5-7.5,19.5c-4.9,4.9-11.3,7.3-19.3,7.3s-14.4-2.4-19.3-7.3
		c-5-5-7.5-11.5-7.5-19.4V64.5h16v27.8c0,3.6,0.9,6.3,2.8,8.2c1.8,1.8,4.5,2.7,8.1,2.7s6.3-0.9,8.1-2.7c1.8-1.8,2.8-4.6,2.8-8.2
		L705.7,64.5L705.7,64.5z"/>
	<path class="st1" d="M729.5,91.3c0-8.7,2.5-15.4,7.5-20.4c4.9-4.9,11.3-7.4,19.3-7.4s14.4,2.5,19.3,7.4c5,5,7.5,11.8,7.5,20.4
		c0,8-2.5,14.5-7.5,19.5c-4.9,4.9-11.3,7.3-19.3,7.3c-2.1,0-4.2-0.1-6.2-0.4v-16.4c1.8,0.6,3.8,0.8,6.2,0.8c3.6,0,6.3-0.9,8.1-2.7
		c1.8-1.8,2.8-4.6,2.8-8.2c0-4.2-0.9-7.3-2.8-9.1c-1.8-1.8-4.5-2.7-8.1-2.7c-3.6,0-6.3,0.9-8.1,2.7c-1.8,1.8-2.7,4.8-2.8,9v45.8h-16
		L729.5,91.3L729.5,91.3z"/>
</g>
</svg>
