<svg id="shield" xmlns="http://www.w3.org/2000/svg" width="24" height="24" viewBox="0 0 24 24">
  <path id="Path_21062" data-name="Path 21062" d="M0,0H24V24H0Z" fill="none"/>
  <path id="Path_21063" data-name="Path 21063" d="M12,3a12,12,0,0,0,8.5,3A12,12,0,0,1,12,21,12,12,0,0,1,3.5,6,12,12,0,0,0,12,3" fill="none" stroke="#4b4453" stroke-linecap="round" stroke-linejoin="round" stroke-width="1.5"/>
  <path id="Path_21064" data-name="Path 21064" d="M2.448,0H1.584L.06-4.242H.984l1.044,3.2,1.044-3.2h.9ZM5.322,0H4.464V-4.242H6.108a1.674,1.674,0,0,1,.576.1,1.339,1.339,0,0,1,.456.273,1.233,1.233,0,0,1,.3.432,1.44,1.44,0,0,1,.108.567,1.434,1.434,0,0,1-.108.57,1.239,1.239,0,0,1-.3.429,1.339,1.339,0,0,1-.456.273,1.674,1.674,0,0,1-.576.1H5.322Zm.69-2.19a.659.659,0,0,0,.483-.18.683.683,0,0,0,.183-.51.665.665,0,0,0-.183-.5.665.665,0,0,0-.483-.177h-.69V-2.19ZM11.61,0h-.834L8.97-2.856V0H8.136V-4.242H8.97l1.806,2.856V-4.242h.834Z" transform="translate(6 14)" fill="#4b4453"/>
</svg>
